<svg xmlns="http://www.w3.org/2000/svg" viewBox="0 0 38.3 50">
  <path d="M33.2 16.3c-5.7-5.4-14-5.1-14.7-5.1H6.3l9.6-8.9L13.7 0 0 12.8l13.7 12.8 2.1-2.3-9.6-8.9H18.5c.1 0 7.6-.4 12.5 4.2 2.8 2.6 4.2 6.4 4.2 11.2h3.1c0-5.8-1.7-10.3-5.1-13.5zM0 37.5h3.7c1.7 0 2.9.2 3.7.7.8.5 1.1 1.3 1.1 2.4 0 .7-.2 1.3-.6 1.8-.4.5-.9.8-1.6.9v.1c.9.2 1.5.5 1.9 1 .4.5.6 1.1.6 2 0 1.1-.4 2-1.2 2.6-.8.6-1.9.9-3.2.9H0V37.5zm2 5.1h2c.8 0 1.5-.1 1.9-.4.4-.3.6-.7.6-1.4 0-.6-.2-1-.6-1.3-.4-.3-1.1-.4-2-.4H2v3.5zm0 1.6v3.9h2.2c.8 0 1.5-.2 1.9-.5.4-.3.6-.8.6-1.5 0-.6-.2-1.1-.7-1.4-.4-.3-1.1-.5-2-.5H2zM17.1 49.8l-.4-1.3h-.1c-.5.6-.9 1-1.4 1.2s-1 .3-1.8.3c-.9 0-1.6-.2-2.2-.7-.5-.5-.8-1.2-.8-2.1 0-1 .4-1.7 1.1-2.2s1.8-.8 3.3-.8l1.6-.1v-.5c0-.6-.1-1-.4-1.3-.3-.3-.7-.4-1.3-.4-.5 0-.9.1-1.4.2-.4.1-.9.3-1.3.5l-.6-1.4c.5-.3 1.1-.5 1.7-.6.6-.1 1.2-.2 1.7-.2 1.2 0 2.1.3 2.7.8.6.5.9 1.3.9 2.4v6.3h-1.3zm-3-1.3c.7 0 1.3-.2 1.7-.6.4-.4.7-1 .7-1.7v-.8l-1.2.1c-.9 0-1.6.2-2 .5s-.6.7-.6 1.3c0 .4.1.7.4 1 .2.1.5.2 1 .2zM25.1 50c-1.4 0-2.5-.4-3.2-1.2-.7-.8-1.1-2-1.1-3.6s.4-2.8 1.2-3.6 1.9-1.3 3.3-1.3c1 0 1.9.2 2.7.6l-.6 1.6c-.8-.3-1.5-.5-2.1-.5-1.6 0-2.4 1.1-2.4 3.2 0 1 .2 1.8.6 2.4.4.5 1 .8 1.8.8.9 0 1.7-.2 2.5-.7v1.7c-.4.2-.7.4-1.1.4-.6.2-1.1.2-1.6.2zM31.8 44.9l1.1-1.4 2.8-3H38l-3.8 4 4 5.3H36l-3-4.1-1.1.9v3.2h-2V36.7h2v6.4l-.1 1.8z" fill="#414042"/>
</svg>
