<svg xmlns="http://www.w3.org/2000/svg" viewBox="0 0 56.693 48.189">
  <path fill="#414042" d="M8.504 0h2.835v2.835H8.504zM11.339 0h2.835v2.835h-2.835z"/>
  <path fill="#414042" d="M14.173 0h2.835v2.835h-2.835zM5.669 2.835h2.835V5.67H5.669zM11.339 2.835h2.835V5.67h-2.835zM17.008 2.835h2.835V5.67h-2.835z"/>
  <path fill="#414042" d="M2.835 5.669H5.67v2.835H2.835zM0 5.669h2.835v2.835H0zM0 8.504h2.835v2.835H0zM11.339 5.669h2.835v2.835h-2.835zM19.843 5.669h2.835v2.835h-2.835zM53.858 5.669h2.835v2.835h-2.835zM8.504 8.504h2.835v2.835H8.504zM11.339 8.504h2.835v2.835h-2.835zM19.843 8.504h2.835v2.835h-2.835zM53.858 8.504h2.835v2.835h-2.835zM53.858 0h2.835v2.835h-2.835z"/>
  <path fill="#414042" d="M53.858 2.835h2.835V5.67h-2.835zM2.835 11.339H5.67v2.835H2.835z"/>
  <path fill="#414042" d="M5.669 11.339h2.835v2.835H5.669zM8.504 11.339h2.835v2.835H8.504zM17.008 11.339h2.835v2.835h-2.835zM53.858 11.339h2.835v2.835h-2.835zM11.339 14.173h2.835v2.835h-2.835z"/>
  <path fill="#414042" d="M14.173 14.173h2.835v2.835h-2.835zM19.843 14.173h2.835v2.835h-2.835zM51.024 17.008h2.835v2.835h-2.835zM53.858 14.173h2.835v2.835h-2.835zM8.504 17.008h2.835v2.835H8.504zM19.843 17.008h2.835v2.835h-2.835z"/>
  <path fill="#414042" d="M22.677 17.008h2.835v2.835h-2.835zM51.024 19.843h2.835v2.835h-2.835zM8.504 19.843h2.835v2.835H8.504zM17.008 19.843h2.835v2.835h-2.835zM19.843 19.843h2.835v2.835h-2.835z"/>
  <path fill="#414042" d="M22.677 19.843h2.835v2.835h-2.835zM25.512 19.843h2.835v2.835h-2.835z"/>
  <path fill="#414042" d="M28.346 19.843h2.835v2.835h-2.835z"/>
  <path fill="#414042" d="M31.181 19.843h2.835v2.835h-2.835zM34.016 19.843h2.835v2.835h-2.835z"/>
  <path fill="#414042" d="M36.85 19.843h2.835v2.835H36.85zM39.685 19.843h2.835v2.835h-2.835zM42.52 19.843h2.835v2.835H42.52z"/>
  <path fill="#414042" d="M45.354 19.843h2.835v2.835h-2.835zM48.189 19.843h2.835v2.835h-2.835zM8.504 22.677h2.835v2.835H8.504zM14.173 22.677h2.835v2.835h-2.835zM17.008 22.677h2.835v2.835h-2.835zM19.843 22.677h2.835v2.835h-2.835zM25.512 22.677h2.835v2.835h-2.835z"/>
  <path fill="#414042" d="M28.346 22.677h2.835v2.835h-2.835z"/>
  <path fill="#414042" d="M31.181 22.677h2.835v2.835h-2.835zM34.016 22.677h2.835v2.835h-2.835z"/>
  <path fill="#414042" d="M36.85 22.677h2.835v2.835H36.85zM39.685 22.677h2.835v2.835h-2.835zM42.52 22.677h2.835v2.835H42.52zM51.024 22.677h2.835v2.835h-2.835zM8.504 25.512h2.835v2.835H8.504zM11.339 25.512h2.835v2.835h-2.835z"/>
  <path fill="#414042" d="M14.173 25.512h2.835v2.835h-2.835zM22.677 25.512h2.835v2.835h-2.835zM31.181 25.512h2.835v2.835h-2.835zM36.85 25.512h2.835v2.835H36.85zM39.685 25.512h2.835v2.835h-2.835zM51.024 25.512h2.835v2.835h-2.835zM8.504 28.346h2.835v2.835H8.504z"/>
  <path fill="#414042" d="M11.339 28.346h2.835v2.835h-2.835zM25.512 28.346h2.835v2.835h-2.835zM34.016 25.512h2.835v2.835h-2.835z"/>
  <path fill="#414042" d="M36.85 28.346h2.835v2.835H36.85zM51.024 28.346h2.835v2.835h-2.835zM11.339 31.181h2.835v2.835h-2.835zM22.677 31.181h2.835v2.835h-2.835zM25.512 31.181h2.835v2.835h-2.835z"/>
  <path fill="#414042" d="M28.346 31.181h2.835v2.835h-2.835z"/>
  <path fill="#414042" d="M31.181 31.181h2.835v2.835h-2.835zM34.016 31.181h2.835v2.835h-2.835z"/>
  <path fill="#414042" d="M36.85 31.181h2.835v2.835H36.85zM39.685 31.181h2.835v2.835h-2.835zM51.024 31.181h2.835v2.835h-2.835zM14.173 34.016h2.835v2.835h-2.835zM19.843 34.016h2.835v2.835h-2.835zM42.52 34.016h2.835v2.835H42.52zM48.189 34.016h2.835v2.835h-2.835z"/>
  <path fill="#414042" d="M14.173 36.85h2.835v2.835h-2.835zM17.008 36.85h2.835v2.835h-2.835zM45.354 36.85h2.835v2.835h-2.835zM48.189 36.85h2.835v2.835h-2.835zM51.024 36.85h2.835v2.835h-2.835zM14.173 39.685h2.835v2.835h-2.835zM51.024 39.685h2.835v2.835h-2.835zM14.173 42.52h2.835v2.835h-2.835zM51.024 42.52h2.835v2.835h-2.835z"/>
  <path fill="#414042" d="M11.339 45.354h2.835v2.835h-2.835z"/>
  <path fill="#414042" d="M14.173 45.354h2.835v2.835h-2.835zM48.189 45.354h2.835v2.835h-2.835zM51.024 45.354h2.835v2.835h-2.835z"/>
</svg>
