<svg viewBox="0 0 57 49" xmlns="http://www.w3.org/2000/svg" fill-rule="evenodd" clip-rule="evenodd" stroke-linejoin="round" stroke-miterlimit="2">
  <path fill="#414042" fill-rule="nonzero" d="M45.4 0h2.8v2.8h-2.8zM42.5 0h2.8v2.8h-2.8zM39.7 0h2.8v2.8h-2.8zM48.2 2.8H51v2.8h-2.8zM42.5 2.8h2.8v2.8h-2.8zM36.8 2.8h2.8v2.8h-2.8zM51 5.7h2.8v2.8H51zM53.9 5.7h2.8v2.8h-2.8zM53.9 8.5h2.8v2.8h-2.8zM42.5 5.7h2.8v2.8h-2.8zM34 5.7h2.8v2.8H34zM0 5.7h2.8v2.8H0zM45.4 8.5h2.8v2.8h-2.8zM42.5 8.5h2.8v2.8h-2.8zM34 8.5h2.8v2.8H34zM0 8.5h2.8v2.8H0zM0 0h2.8v2.8H0zM0 2.8h2.8v2.8H0zM51 11.3h2.8v2.8H51zM48.2 11.3H51v2.8h-2.8zM45.4 11.3h2.8v2.8h-2.8zM36.8 11.3h2.8v2.8h-2.8zM0 11.3h2.8v2.8H0zM42.5 14.2h2.8V17h-2.8zM39.7 14.2h2.8V17h-2.8zM34 14.2h2.8V17H34zM2.8 17h2.8v2.8H2.8zM0 14.2h2.8V17H0zM45.4 17h2.8v2.8h-2.8zM34 17h2.8v2.8H34zM31.2 17H34v2.8h-2.8zM2.8 19.8h2.8v2.8H2.8zM45.4 19.8h2.8v2.8h-2.8zM36.8 19.8h2.8v2.8h-2.8zM34 19.8h2.8v2.8H34zM31.2 19.8H34v2.8h-2.8zM28.3 19.8h2.8v2.8h-2.8zM25.5 19.8h2.8v2.8h-2.8zM22.7 19.8h2.8v2.8h-2.8zM19.8 19.8h2.8v2.8h-2.8zM17 19.8h2.8v2.8H17zM14.2 19.8H17v2.8h-2.8zM11.3 19.8h2.8v2.8h-2.8zM8.5 19.8h2.8v2.8H8.5zM5.7 19.8h2.8v2.8H5.7zM45.4 22.7h2.8v2.8h-2.8zM39.7 22.7h2.8v2.8h-2.8zM36.8 22.7h2.8v2.8h-2.8zM34 22.7h2.8v2.8H34zM28.3 22.7h2.8v2.8h-2.8zM25.5 22.7h2.8v2.8h-2.8zM22.7 22.7h2.8v2.8h-2.8zM19.8 22.7h2.8v2.8h-2.8zM17 22.7h2.8v2.8H17zM14.2 22.7H17v2.8h-2.8zM11.3 22.7h2.8v2.8h-2.8zM2.8 22.7h2.8v2.8H2.8zM45.4 25.5h2.8v2.8h-2.8zM42.5 25.5h2.8v2.8h-2.8zM39.7 25.5h2.8v2.8h-2.8zM31.2 25.5H34v2.8h-2.8zM22.7 25.5h2.8v2.8h-2.8zM17 25.5h2.8v2.8H17zM14.2 25.5H17v2.8h-2.8zM2.8 25.5h2.8v2.8H2.8zM45.4 28.3h2.8v2.8h-2.8zM42.5 28.3h2.8v2.8h-2.8zM28.3 28.3h2.8v2.8h-2.8zM19.8 25.5h2.8v2.8h-2.8zM17 28.3h2.8v2.8H17zM2.8 28.3h2.8v2.8H2.8zM42.5 31.2h2.8V34h-2.8zM31.2 31.2H34V34h-2.8zM28.3 31.2h2.8V34h-2.8zM25.5 31.2h2.8V34h-2.8zM22.7 31.2h2.8V34h-2.8zM19.8 31.2h2.8V34h-2.8zM17 31.2h2.8V34H17zM14.2 31.2H17V34h-2.8zM2.8 31.2h2.8V34H2.8zM39.7 34h2.8v2.8h-2.8zM34 34h2.8v2.8H34zM11.3 34h2.8v2.8h-2.8zM5.7 34h2.8v2.8H5.7zM39.7 36.8h2.8v2.8h-2.8zM36.8 36.8h2.8v2.8h-2.8zM8.5 36.8h2.8v2.8H8.5zM5.7 36.8h2.8v2.8H5.7zM2.8 36.8h2.8v2.8H2.8zM39.7 39.7h2.8v2.8h-2.8zM2.8 39.7h2.8v2.8H2.8zM39.7 42.5h2.8v2.8h-2.8zM2.8 42.5h2.8v2.8H2.8zM42.5 45.3h2.8v2.8h-2.8zM39.7 45.3h2.8v2.8h-2.8zM5.7 45.3h2.8v2.8H5.7zM2.8 45.3h2.8v2.8H2.8z"/>
</svg>
