<svg xmlns="http://www.w3.org/2000/svg" viewBox="0 0 760 50">
  <path fill="#414042" d="M95.6 30h10v10h-10zM95.6 40h10v10h-10zM95.6 20h10v10h-10zM95.6 0h10v10h-10zM166.1 10h10v10h-10zM186.1 30h10v10h-10zM186.1 10h10v10h-10zM176.1 20h10v10h-10zM166.1 30h10v10h-10zM30 10h10v10H30zM20 0h10v10H20zM10 0h10v10H10zM10 20h10v10H10zM0 40h10v10H0zM0 30h10v10H0zM0 20h10v10H0zM20 20h10v10H20zM0 10h10v10H0zM0 0h10v10H0zM432.8 10h10v10h-10zM422.8 0h10v10h-10zM412.8 0h10v10h-10zM412.8 20h10v10h-10zM402.8 40h10v10h-10zM402.8 30h10v10h-10zM402.8 20h10v10h-10zM422.8 20h10v10h-10zM402.8 10h10v10h-10zM402.8 0h10v10h-10zM593.9 10h10v10h-10zM583.9 0h10v10h-10zM573.9 0h10v10h-10zM573.9 20h10v10h-10zM563.9 40h10v10h-10zM563.9 30h10v10h-10zM563.9 20h10v10h-10zM583.9 20h10v10h-10zM563.9 10h10v10h-10zM563.9 0h10v10h-10zM674.4 10h10v10h-10zM664.4 0h10v10h-10zM654.4 0h10v10h-10zM654.4 20h10v10h-10zM644.4 40h10v10h-10zM644.4 30h10v10h-10zM644.4 20h10v10h-10zM664.4 20h10v10h-10zM644.4 10h10v10h-10zM644.4 0h10v10h-10zM246.7 30h10v10h-10zM246.7 40h10v10h-10zM256.7 20h10v10h-10zM246.7 10h10v10h-10zM246.7 0h10v10h-10zM266.7 0h10v10h-10zM256.7 0h10v10h-10zM266.7 40h10v10h-10zM256.7 40h10v10h-10zM488.3 30h10v10h-10zM488.3 40h10v10h-10zM498.3 20h10v10h-10zM488.3 10h10v10h-10zM488.3 0h10v10h-10zM508.3 0h10v10h-10z"/>
  <path fill="#414042" d="M498.3 0h10v10h-10zM508.3 40h10v10h-10z"/>
  <path fill="#414042" d="M498.3 40h10v10h-10zM730 30h10v10h-10zM730 40h10v10h-10zM740 20h10v10h-10zM730 10h10v10h-10zM730 0h10v10h-10zM750 0h10v10h-10zM740 0h10v10h-10zM750 40h10v10h-10zM740 40h10v10h-10zM327.2 30h10v10h-10zM327.2 40h10v10h-10zM327.2 20h10v10h-10zM327.2 10h10v10h-10zM327.2 0h10v10h-10zM347.2 40h10v10h-10z"/>
</svg>
