<svg viewBox="0 0 317 314" xmlns="http://www.w3.org/2000/svg" fill-rule="evenodd" clip-rule="evenodd" stroke-linejoin="round" stroke-miterlimit="2">
  <g fill="#ed1c24" fill-rule="nonzero">
    <path d="M11.9 110.4c.5-1.6 1.4-2.7 2.9-3.2 1.4-.5 3.2-.5 5.3.1 2.1.6 3.6 1.6 4.5 2.9.9 1.3 1.1 2.7.6 4.3-.5 1.6-1.5 2.7-2.9 3.3l-.1.2 1.4 1-.6 2.1-18.2-5.5.8-2.7 4.3 1.3c.3.1.8.3 1.4.5.6.2 1 .4 1.2.4v-.1c-.8-1.4-1.1-2.9-.6-4.6zm2.1 1.4c-.3 1.1-.2 2 .3 2.7.5.7 1.5 1.3 3 1.7l.2.1c1.6.5 2.8.6 3.6.3.8-.3 1.5-1 1.8-2.1.3-1 .1-1.8-.5-2.6-.6-.7-1.7-1.3-3.1-1.8-2.9-.8-4.7-.3-5.3 1.7zM22.2 85.4c.3-.5.5-.9.7-1.2l2.3 1.4c-.3.3-.5.7-.7 1.1-.5 1-.6 2-.2 3 .4 1 1.1 1.7 2.2 2.2l6.3 3.1-1.3 2.6-12.1-5.9 1-2 2.3.7.1-.1c-.5-.8-.8-1.6-1-2.4-.1-.9 0-1.7.4-2.5zM42.5 66.3c1.8 1.3 2.9 2.7 3.2 4.4.4 1.6 0 3.3-1.2 4.9-.7 1-1.6 1.8-2.6 2.2-1 .5-2.1.6-3.3.4-1.2-.2-2.3-.7-3.5-1.5-1.8-1.3-2.9-2.7-3.2-4.3-.4-1.6.1-3.3 1.2-4.9 1.1-1.6 2.5-2.5 4.2-2.7 1.8-.3 3.5.2 5.2 1.5zm-5.6 8c2.5 1.8 4.5 1.8 5.8-.1 1.3-1.9.7-3.7-1.8-5.5-2.5-1.8-4.4-1.7-5.8.1-.7 1-.9 1.9-.5 2.8.3 1 1.1 1.8 2.3 2.7zM63 54l-1.5-1-.1.1c.2.7.1 1.5-.2 2.2-.3.8-.7 1.5-1.4 2.2-1.2 1.1-2.3 1.7-3.5 1.7-1.1 0-2.3-.6-3.5-1.8l-6.2-6.3 2.1-2 5.8 5.9c.7.7 1.4 1.1 2.1 1.2.7.1 1.3-.2 2-.8.9-.8 1.2-1.7 1.1-2.6-.1-.9-.7-2-1.9-3.2l-4.7-4.8 2.1-2 9.5 9.6L63 54zM76.7 26.3l.9 1.3-1.6 1.7c.3.1.7.3 1 .6.3.3.7.6.9 1 .8 1.1 1 2.3.7 3.5-.3 1.2-1.2 2.3-2.6 3.2-.4.2-.7.4-1 .6-.3.7-.3 1.2 0 1.6.2.3.4.4.8.3.3 0 .8-.3 1.4-.7l1.9-1.3c1.2-.8 2.3-1.2 3.3-1.1 1 .1 1.8.6 2.5 1.6.9 1.3 1 2.6.5 4-.6 1.4-1.8 2.8-3.8 4.1-1.5 1-2.9 1.6-4 1.6-1.2 0-2.1-.5-2.8-1.5-.5-.7-.7-1.4-.5-2.2.2-.8.5-1.5 1.1-2.2-.4.1-.8 0-1.2-.1-.4-.2-.7-.4-1-.7-.3-.4-.4-.8-.4-1.3s.2-1 .5-1.6c-.7.2-1.5.1-2.2-.2-.7-.3-1.4-.8-1.9-1.6-.8-1.2-1.1-2.4-.8-3.6.3-1.3 1.2-2.3 2.6-3.3.3-.2.7-.4 1-.6.4-.2.7-.3.9-.4l3.8-2.7zm-5.2 8.9c.5.7 1 1.1 1.6 1.2.6.1 1.3 0 1.9-.5 1.4-.9 1.5-2.1.5-3.6-.5-.7-1.1-1.2-1.7-1.3-.6-.2-1.3 0-1.9.5-.7.5-1.1 1-1.1 1.7 0 .6.2 1.3.7 2zm5.4 10c.4.5.9.7 1.5.7s1.4-.4 2.2-.9c1.3-.9 2.1-1.7 2.5-2.5.4-.8.4-1.5-.1-2.1-.3-.5-.7-.7-1.2-.7s-1.2.4-2.1 1l-1.8 1.2c-.7.5-1.1 1-1.3 1.6-.2.6-.1 1.1.3 1.7zM105.4 26.7l-2.6 1.2-3.5-7.5c-.4-.9-1-1.6-1.5-1.9-.6-.3-1.3-.2-2.1.1-1.1.5-1.7 1.2-2 2.1-.3.9 0 2.1.7 3.6l2.8 6.1-2.6 1.2-7.9-17.3 2.6-1.2 2 4.4c.3.7.6 1.5.9 2.3l.2-.1c.1-.8.4-1.4.8-2.1.5-.6 1.1-1.1 2-1.5 3-1.4 5.1-.6 6.5 2.4l3.7 8.2zM122.3 19c.7-.2 1.3-.5 1.9-.9l.6 2.1c-.3.2-.6.4-1.1.7-.5.3-.9.4-1.5.6-2.6.7-4.3-.3-5.1-3l-1.9-7-1.8.5-.3-1.2 1.6-1.5.2-3 1.7-.5.8 2.9 3.7-1 .6 2.1-3.7 1 1.9 7c.2.7.5 1.1.9 1.3.5 0 1 0 1.5-.1zM157.7 14.4c.7 0 1.4-.1 2.1-.4l.1 2.2c-.3.1-.7.3-1.2.4-.5.1-1 .2-1.6.2-2.7.1-4.1-1.3-4.2-4.2l-.2-7.3h-1.8V4l2-1.1.9-2.9h1.8l.1 3 3.8-.1.1 2.2-3.8.1.2 7.2c0 .7.2 1.2.6 1.5.1.3.5.5 1.1.5zM184.7 12c-.3 2.2-1.1 3.8-2.4 4.9-1.3 1.1-2.9 1.5-4.9 1.2-1.2-.2-2.3-.6-3.2-1.3-.9-.7-1.5-1.6-1.9-2.7-.4-1.1-.5-2.4-.3-3.8.3-2.2 1.1-3.8 2.4-4.8 1.3-1.1 2.9-1.5 5-1.2 1.9.3 3.4 1.1 4.3 2.5.9 1.3 1.3 3 1 5.2zm-9.8-1.4c-.4 3.1.5 4.8 2.8 5.1 2.3.3 3.6-1.1 4-4.2.4-3.1-.5-4.7-2.8-5.1-1.2-.2-2.1.1-2.8.8-.5.8-1 1.9-1.2 3.4zM214.8 13.7l2.8 1.3-.6 8.1c-.1 1.2-.2 2.2-.5 3.1h.1c.3-.4.6-.8 1-1.3s2.6-2.8 6.6-7l2.8 1.3-11.6 11.6c-2.1 2.1-4.3 2.7-6.5 1.7-.6-.3-1.1-.6-1.6-1l.9-2.1c.4.3.8.5 1.3.7 1.3.6 2.5.2 3.6-1l1-1 .7-14.4zM245.1 38.2c-1.2 1.8-2.7 2.9-4.3 3.3-1.6.4-3.3 0-5-1.1-1-.7-1.8-1.6-2.3-2.6-.5-1-.6-2.1-.5-3.3.2-1.2.6-2.3 1.4-3.5 1.2-1.8 2.6-2.9 4.3-3.3 1.7-.4 3.3 0 5 1.1 1.6 1.1 2.5 2.5 2.8 4.2.3 1.7-.2 3.4-1.4 5.2zm-8.2-5.5c-1.7 2.6-1.7 4.5.3 5.8 1.9 1.3 3.7.6 5.4-2 1.7-2.6 1.6-4.5-.3-5.8-1-.7-1.9-.8-2.8-.5-.9.5-1.7 1.2-2.6 2.5zM257.8 58.4l.9-1.6-.1-.1c-.7.2-1.5.1-2.3-.1-.8-.3-1.5-.7-2.2-1.4-1.2-1.1-1.8-2.3-1.8-3.4s.6-2.3 1.7-3.5l6.1-6.3 2.1 2-5.8 6c-.7.7-1.1 1.4-1.2 2.1-.1.7.2 1.3.9 1.9.9.8 1.7 1.2 2.7 1.1.9-.1 2-.8 3.1-2l4.7-4.8 2.1 2-9.4 9.7-1.5-1.6zM292.6 82.6c.8 1.5.9 2.9.3 4.3-.6 1.4-1.9 2.7-3.8 3.7-1.9 1.1-3.7 1.5-5.2 1.3-1.5-.2-2.7-1.1-3.5-2.6-.8-1.5-.9-3-.3-4.4l-.1-.2-1.7.3-1-1.9 16.6-9.2 1.4 2.5-3.9 2.2c-.3.2-.7.4-1.3.7-.6.3-1 .5-1.1.5l.1.1c1.4.3 2.7 1.2 3.5 2.7zm-2.4.5c-.6-1-1.3-1.6-2.1-1.7-.8-.1-2 .2-3.4 1l-.2.1c-1.4.8-2.4 1.6-2.7 2.4-.4.8-.3 1.7.3 2.8.5.9 1.2 1.4 2.2 1.4 1 .1 2.1-.3 3.4-1 2.7-1.5 3.6-3.2 2.5-5zM300.3 99.2l1 3-6.3 5.1c-.9.8-1.8 1.3-2.6 1.8v.1c.4-.1 1-.1 1.7-.2.7 0 3.9 0 9.6-.1l1 2.9-16.3-.4c-3-.1-4.9-1.3-5.7-3.6-.2-.6-.3-1.2-.4-1.8l2.1-.7c0 .4.2.9.3 1.4.5 1.3 1.5 2 3.2 2l1.4.1 11-9.6z"/>
  </g>
  <g fill="#ed1c24" fill-rule="nonzero">
    <path d="M14.6 176.1c-2 .2-3.6-.3-4.8-1.5-1.2-1.2-1.9-3-2.1-5.5l-.2-2-7.2.7-.3-3.1 19.2-1.8.5 5.5c.2 2.4-.1 4.2-1 5.5-.8 1.3-2.2 2.1-4.1 2.2zm-4.5-9.2l.2 1.7c.1 1.6.5 2.8 1.2 3.5.7.7 1.5 1 2.7.9 1.1-.1 1.9-.5 2.4-1.2s.7-1.8.5-3.2l-.2-2.2-6.8.5zM11.8 216.2l17.7-7.5 1.2 2.9-17.7 7.5-1.2-2.9zM43.7 265.4l-2.4-2.7 2.8-8.8-9.1 1.5-2.2-2.6 11.7-1.7 3.1-10.6 2.3 2.7-2.6 8.1 8.4-1.4 2.2 2.6L47 254l-3.3 11.4zM84.1 295.9l-9.4-5.5 9.7-16.7 9.4 5.5-1.3 2.3-6.7-3.9-2.6 4.5 6.3 3.6-1.3 2.3-6.3-3.6-3 5.2 6.7 3.9-1.5 2.4zM122.7 310.2l3.7-18.9 3.1.6-3.2 16.3 8 1.6-.5 2.7-11.1-2.3zM185 298.4c.3 2-.2 3.6-1.3 4.9-1.2 1.2-2.9 2-5.4 2.4l-2 .3 1 7.1-3.1.4-2.6-19.1 5.5-.8c2.4-.3 4.2-.1 5.6.7 1.3.8 2.1 2.2 2.3 4.1zm-9 4.8l1.7-.2c1.6-.2 2.7-.7 3.4-1.3.7-.7.9-1.6.8-2.8-.2-1.1-.6-1.9-1.3-2.3-.7-.4-1.8-.6-3.2-.4l-2.2.3.8 6.7zM235.7 294l-9.7 5-8.8-17.1 9.7-5 1.2 2.4-6.9 3.5 2.4 4.7 6.5-3.3 1.2 2.3-6.5 3.3 2.8 5.4 6.9-3.5 1.2 2.3zM267.9 250.7c1.5 1.4 2.1 2.9 2 4.6-.1 1.7-1 3.4-2.7 5.2l-1.4 1.5 5.2 5-2.2 2.3-13.9-13.3 3.8-4c1.7-1.7 3.3-2.7 4.8-2.9 1.5-.3 3 .3 4.4 1.6zm-4.1 9.4l1.2-1.2c1.1-1.2 1.7-2.2 1.8-3.2.1-.9-.3-1.8-1.1-2.6s-1.6-1.1-2.5-1c-.9.1-1.8.7-2.8 1.7l-1.5 1.6 4.9 4.7zM293.3 208.5c1.8.8 3 2.1 3.4 3.7.4 1.6.2 3.6-.8 5.8l-.8 1.8 6.6 2.9-1.3 2.9-17.6-7.9 2.3-5.1c1-2.2 2.2-3.6 3.6-4.3 1.3-.7 2.9-.6 4.6.2zm-.6 10.2l.7-1.5c.7-1.5.9-2.7.7-3.6-.2-.9-.9-1.6-1.9-2.1-1-.5-1.9-.5-2.7-.1-.8.4-1.5 1.2-2 2.6l-.9 2 6.1 2.7zM316.4 163.2l-.9 10.9-19.2-1.6.9-10.9 2.7.2-.6 7.7 5.2.4.6-7.2 2.6.2-.6 7.2 6 .5.6-7.7 2.7.3z"/>
  </g>
  <path fill="#ed1c24" d="M106.1 92.6h7.4v7.4h-7.4zM113.6 92.6h7.4v7.4h-7.4zM121 92.6h7.4v7.4H121zM98.7 100h7.4v7.4h-7.4zM113.6 100h7.4v7.4h-7.4zM128.4 100h7.4v7.4h-7.4zM91.3 107.5h7.4v7.4h-7.4zM83.8 107.5h7.4v7.4h-7.4zM83.8 114.9h7.4v7.4h-7.4zM113.6 107.5h7.4v7.4h-7.4zM135.9 107.5h7.4v7.4h-7.4zM225.1 107.5h7.4v7.4h-7.4zM106.1 114.9h7.4v7.4h-7.4zM113.6 114.9h7.4v7.4h-7.4zM135.9 114.9h7.4v7.4h-7.4zM225.1 114.9h7.4v7.4h-7.4zM225.1 92.6h7.4v7.4h-7.4zM225.1 100h7.4v7.4h-7.4zM91.3 122.3h7.4v7.4h-7.4z"/>
  <path fill="#ed1c24" d="M98.7 122.3h7.4v7.4h-7.4z"/>
  <path fill="#ed1c24" d="M106.1 122.3h7.4v7.4h-7.4zM128.4 122.3h7.4v7.4h-7.4zM225.1 122.3h7.4v7.4h-7.4zM113.6 129.8h7.4v7.4h-7.4zM121 129.8h7.4v7.4H121zM135.9 129.8h7.4v7.4h-7.4zM217.7 137.2h7.4v7.4h-7.4zM225.1 129.8h7.4v7.4h-7.4zM106.1 137.2h7.4v7.4h-7.4z"/>
  <path fill="#ed1c24" d="M135.9 137.2h7.4v7.4h-7.4zM143.3 137.2h7.4v7.4h-7.4zM217.7 144.6h7.4v7.4h-7.4zM106.1 144.6h7.4v7.4h-7.4zM128.4 144.6h7.4v7.4h-7.4zM135.9 144.6h7.4v7.4h-7.4zM143.3 144.6h7.4v7.4h-7.4z"/>
  <path fill="#ed1c24" d="M150.7 144.6h7.4v7.4h-7.4zM158.2 144.6h7.4v7.4h-7.4zM165.6 144.6h7.4v7.4h-7.4zM173 144.6h7.4v7.4H173zM180.5 144.6h7.4v7.4h-7.4zM187.9 144.6h7.4v7.4h-7.4zM195.3 144.6h7.4v7.4h-7.4zM202.8 144.6h7.4v7.4h-7.4z"/>
  <path fill="#ed1c24" d="M210.2 144.6h7.4v7.4h-7.4zM106.1 152.1h7.4v7.4h-7.4zM121 152.1h7.4v7.4H121zM128.4 152.1h7.4v7.4h-7.4zM135.9 152.1h7.4v7.4h-7.4zM150.7 152.1h7.4v7.4h-7.4zM158.2 152.1h7.4v7.4h-7.4zM165.6 152.1h7.4v7.4h-7.4zM173 152.1h7.4v7.4H173zM180.5 152.1h7.4v7.4h-7.4zM187.9 152.1h7.4v7.4h-7.4zM195.3 152.1h7.4v7.4h-7.4zM217.7 152.1h7.4v7.4h-7.4zM106.1 159.5h7.4v7.4h-7.4zM113.6 159.5h7.4v7.4h-7.4zM121 159.5h7.4v7.4H121zM143.3 159.5h7.4v7.4h-7.4zM165.6 159.5h7.4v7.4h-7.4zM180.5 159.5h7.4v7.4h-7.4zM187.9 159.5h7.4v7.4h-7.4zM217.7 159.5h7.4v7.4h-7.4zM106.1 166.9h7.4v7.4h-7.4zM113.6 166.9h7.4v7.4h-7.4zM150.7 166.9h7.4v7.4h-7.4zM173 159.5h7.4v7.4H173zM180.5 166.9h7.4v7.4h-7.4zM217.7 166.9h7.4v7.4h-7.4zM113.6 174.4h7.4v7.4h-7.4zM143.3 174.4h7.4v7.4h-7.4z"/>
  <path fill="#ed1c24" d="M150.7 174.4h7.4v7.4h-7.4zM158.2 174.4h7.4v7.4h-7.4zM165.6 174.4h7.4v7.4h-7.4zM173 174.4h7.4v7.4H173zM180.5 174.4h7.4v7.4h-7.4zM187.9 174.4h7.4v7.4h-7.4zM217.7 174.4h7.4v7.4h-7.4zM121 181.8h7.4v7.4H121zM135.9 181.8h7.4v7.4h-7.4zM195.3 181.8h7.4v7.4h-7.4zM210.2 181.8h7.4v7.4h-7.4zM121 189.3h7.4v7.4H121zM128.4 189.3h7.4v7.4h-7.4zM202.8 189.3h7.4v7.4h-7.4z"/>
  <path fill="#ed1c24" d="M210.2 189.3h7.4v7.4h-7.4zM217.7 189.3h7.4v7.4h-7.4zM121 196.7h7.4v7.4H121z"/>
  <path fill="#ed1c24" d="M217.7 196.7h7.4v7.4h-7.4zM121 204.1h7.4v7.4H121zM217.7 204.1h7.4v7.4h-7.4zM113.6 211.6h7.4v7.4h-7.4zM121 211.6h7.4v7.4H121zM210.2 211.6h7.4v7.4h-7.4zM217.7 211.6h7.4v7.4h-7.4z"/>
</svg>
