<svg xmlns="http://www.w3.org/2000/svg" viewBox="0 0 291.5 50">
  <path d="M26.6 33.1v16H15.9v-16L0 .9h11.1l8 17.7c.5 1.1.9 2.3 1.2 3.6.3 1.4.5 2.2.6 2.4h.7c.6-2.5 1.1-4.5 1.7-6.1l8-17.7h11L26.6 33.1zM95.3 2.4c2.7 1.6 4 4.5 4 8.8 0 2.9-.5 5.4-1.6 7.6-1 2.2-3.1 5-6.3 8.3L79.1 40c1.8-.3 4.2-.5 7.1-.5h14.5v9.6H66.5v-5.9c0-.9.1-1.7.3-2.4.2-.7.6-1.3 1.2-1.9l11.8-12.7c2.8-3 5-5.6 6.4-7.8 1.4-2.2 2.2-4.2 2.2-5.8 0-1.4-.5-2.3-1.5-2.7-1-.4-2.7-.6-5.1-.6-4.9 0-9.8.2-14.5.6l-.4-8c3.2-.7 6-1.1 8.4-1.3s5.1-.3 7.8-.3c5.5-.2 9.5.6 12.2 2.1zM143.9 27.9h-4.1c.3 1.9.5 3.4.5 4.6v16.6h-10.6V.9h10.6v13.6c0 2-.2 4-.5 5.7h4.1L156.2.9h11.5l-12.4 19.2c-.8 1.4-2 2.7-3.5 3.8v.3c.7.5 1.5 1.2 2.2 1.9.7.8 1.3 1.5 1.8 2.3L168.5 49h-11.9l-12.7-21.1zM221.6 2.4c2.7 1.6 4 4.5 4 8.8 0 2.9-.5 5.4-1.6 7.6-1 2.2-3.1 5-6.3 8.3L205.4 40c1.8-.3 4.2-.5 7.1-.5H227v9.6h-34.1v-5.9c0-.9.1-1.7.3-2.4.2-.7.6-1.3 1.2-1.9l11.8-12.7c2.8-3 5-5.6 6.4-7.8 1.4-2.2 2.2-4.2 2.2-5.8 0-1.4-.5-2.3-1.5-2.7-1-.4-2.7-.6-5.1-.6-4.9 0-9.8.2-14.5.6l-.4-8c3.2-.7 6-1.1 8.4-1.3 2.5-.2 5.1-.3 7.8-.3 5.4-.2 9.4.6 12.1 2.1zM284 2.4c2.7 1.6 4.6 4.2 5.8 7.9 1.2 3.6 1.8 8.5 1.8 14.7s-.6 11.1-1.8 14.7c-1.2 3.6-3.1 6.2-5.8 7.9-2.7 1.6-6.3 2.4-11 2.4s-8.3-.8-11-2.4c-2.7-1.6-4.6-4.2-5.8-7.8-1.2-3.6-1.8-8.5-1.8-14.7 0-6.2.6-11.1 1.8-14.7 1.2-3.6 3.1-6.2 5.8-7.8 2.7-1.6 6.3-2.4 11-2.4 4.6-.2 8.3.6 11 2.2zm-15.9 7.5c-1.1 1-1.9 2.6-2.4 4.9-.5 2.3-.7 5.7-.7 10.2 0 4.5.2 7.9.7 10.2.5 2.3 1.3 4 2.4 4.9 1.1 1 2.8 1.4 4.9 1.4 2.1 0 3.8-.5 5-1.4 1.2-1 2-2.6 2.5-4.9.5-2.3.7-5.7.7-10.2 0-4.5-.2-7.9-.7-10.2s-1.3-4-2.5-4.9c-1.2-1-2.8-1.4-5-1.4-2.2-.1-3.8.4-4.9 1.4z" fill="#414042"/>
</svg>
